<svg preserveAspectRatio="none" overflow="visible" style="display: block;" width="12" height="15.9999" viewBox="0 0 12 15.9999" fill="none" xmlns="http://www.w3.org/2000/svg">
<g id="Group">
<path id="Vector" fill-rule="evenodd" clip-rule="evenodd" d="M3.042 0.155897C3.15928 0.0655365 3.30067 0.0119061 3.44837 0.00176272C3.59607 -0.00838062 3.74347 0.0254169 3.872 0.0988973C4.704 0.573897 5.379 0.848897 6.028 0.984897C6.672 1.1189 7.332 1.1239 8.144 1.0079C8.26712 0.990236 8.3927 1.00347 8.50943 1.04641C8.62616 1.08935 8.73038 1.16065 8.8127 1.25388C8.89503 1.34712 8.95287 1.45936 8.98103 1.58051C9.00918 1.70166 9.00677 1.82791 8.974 1.9479L8.412 4.0079C10.957 5.7579 12 10.1419 12 12.7499C12 14.7499 9 15.9999 6 15.9999C3 15.9999 0 14.7499 0 12.7499C0 10.1419 1.044 5.7549 3.592 4.0049L2.775 0.942897C2.73697 0.800006 2.74202 0.649061 2.78953 0.509035C2.83703 0.369008 2.92487 0.246148 3.042 0.155897ZM5.992 5.5999C6.528 5.6049 7.036 5.4839 7.597 5.2679C8.147 5.6529 8.644 6.2509 9.083 7.0529C8.66212 7.36295 8.18319 7.58522 7.6747 7.70651C7.1662 7.82779 6.63852 7.84561 6.123 7.7589C5.92674 7.72628 5.72556 7.77295 5.56372 7.88866C5.40187 8.00437 5.29262 8.17964 5.26 8.3759C5.22738 8.57216 5.27406 8.77334 5.38977 8.93518C5.50548 9.09703 5.68074 9.20628 5.877 9.2389C7.20791 9.46244 8.57428 9.17953 9.707 8.4459C10.25 9.9399 10.5 11.5679 10.5 12.7489C10.5 12.8989 10.386 13.3169 9.454 13.7819C8.579 14.2199 7.318 14.4989 6 14.4989C4.682 14.4989 3.421 14.2199 2.546 13.7819C1.614 13.3179 1.5 12.8999 1.5 12.7499C1.5 12.3399 1.53 11.8759 1.592 11.3819C3.16657 12.3348 5.01732 12.7268 6.843 12.4939C6.94248 12.4838 7.03894 12.454 7.12672 12.4061C7.2145 12.3583 7.29182 12.2933 7.35414 12.2151C7.41645 12.1369 7.4625 12.0471 7.48958 11.9508C7.51666 11.8546 7.52422 11.7539 7.51182 11.6547C7.49942 11.5555 7.4673 11.4597 7.41737 11.3731C7.36743 11.2865 7.30067 11.2107 7.22103 11.1503C7.14139 11.0898 7.05046 11.0459 6.9536 11.0211C6.85673 10.9963 6.75589 10.9912 6.657 11.0059C4.938 11.2209 3.301 10.7809 1.889 9.7869C2.088 8.9789 2.366 8.1599 2.729 7.4169C3.214 6.4279 3.776 5.7069 4.407 5.2669C4.956 5.4669 5.46 5.5959 5.993 5.6009M4.646 2.1349L5.125 3.9279C5.489 4.0479 5.758 4.0979 6.007 4.1009C6.254 4.1029 6.52 4.0589 6.877 3.9349L7.245 2.5879C6.35721 2.61064 5.47375 2.45665 4.646 2.1349Z" fill="#868686"/>
</g>
</svg>
